<svg width="53" height="57" viewBox="0 0 53 57" fill="none" xmlns="http://www.w3.org/2000/svg">
<path d="M38.9391 46.3517C39.5617 46.589 40.2901 46.7263 40.9956 46.6462C42.9608 46.4231 43.9153 44.0878 44.0371 42.1138C44.858 28.8135 42.7574 6.76078 28.4689 4.94209C12.9905 2.97196 11.2043 27.7794 12.2461 40.4294C12.4826 44.2182 14.3747 50.1958 20.0509 43.7955C20.2633 43.5977 20.6657 42.8801 20.9029 42.7847C21.0063 42.743 21.1026 43.4465 21.1156 43.5143C21.8072 46.7424 24.1622 51.1915 28.049 43.1627C28.1754 42.9321 28.2727 42.5201 28.4351 42.3291C28.4996 42.2533 28.5135 42.4983 28.5526 42.5828L28.7197 42.9436C28.8407 43.2047 28.8975 43.4557 28.9919 43.7227C29.1983 44.3065 29.4233 44.8681 29.6851 45.4333C29.9405 45.9848 30.2107 46.5008 30.7234 46.8639C31.2511 47.2375 31.8205 47.2217 32.462 47.2718C33.7465 47.3722 34.6182 46.5492 35.2139 45.5639C35.6506 44.8415 36.0072 43.953 36.2869 43.1603C36.4269 42.7635 36.672 42.234 36.9746 41.9077C37.0486 41.828 37.3368 42.9802 37.366 43.1131C37.5725 44.0562 37.8938 45.9534 38.9391 46.3517Z" fill="url(#paint0_linear_779_224)"/>
<circle cx="32.4814" cy="19.5116" r="1.5" fill="white"/>
<circle cx="21.2954" cy="19.5118" r="1.5" fill="white"/>
<path d="M30.3227 25.6873C30.3227 27.383 28.899 28.7576 27.1428 28.7576C25.3866 28.7576 23.9629 27.383 23.9629 25.6873" stroke="white" stroke-width="2.56" stroke-linecap="round"/>
<defs>
<linearGradient id="paint0_linear_779_224" x1="15.8224" y1="40.7089" x2="44.092" y2="18.4423" gradientUnits="userSpaceOnUse">
<stop stop-color="#0558FC"/>
<stop offset="1" stop-color="#9E24D8"/>
</linearGradient>
</defs>
</svg>
