<svg width="32" height="32" viewBox="0 0 32 32" fill="none" xmlns="http://www.w3.org/2000/svg">
<path d="M28.107 9.33314C27.8766 8.93396 27.5467 8.60131 27.1494 8.36764C26.7522 8.13396 26.3012 8.00723 25.8403 7.99981H8.77366L8.00033 4.98647C7.92219 4.69559 7.74787 4.43973 7.50576 4.26057C7.26365 4.08141 6.96801 3.98949 6.66699 3.99981H4.00033C3.6467 3.99981 3.30756 4.14028 3.05752 4.39033C2.80747 4.64038 2.66699 4.97952 2.66699 5.33314C2.66699 5.68676 2.80747 6.0259 3.05752 6.27595C3.30756 6.526 3.6467 6.66647 4.00033 6.66647H5.65366L9.33366 20.3465C9.41179 20.6374 9.58611 20.8932 9.82822 21.0724C10.0703 21.2515 10.366 21.3435 10.667 21.3331H22.667C22.9132 21.3324 23.1544 21.2635 23.3639 21.134C23.5733 21.0046 23.7429 20.8197 23.8537 20.5998L28.227 11.8531C28.4165 11.4558 28.5048 11.0178 28.4839 10.5781C28.4629 10.1383 28.3334 9.71064 28.107 9.33314V9.33314Z" fill="#0558FC"/>
<path d="M10.001 27.9998C11.1055 27.9998 12.001 27.1043 12.001 25.9998C12.001 24.8952 11.1055 23.9998 10.001 23.9998C8.89641 23.9998 8.00098 24.8952 8.00098 25.9998C8.00098 27.1043 8.89641 27.9998 10.001 27.9998Z" fill="#0558FC"/>
<path d="M23.333 27.9998C24.4376 27.9998 25.333 27.1043 25.333 25.9998C25.333 24.8952 24.4376 23.9998 23.333 23.9998C22.2284 23.9998 21.333 24.8952 21.333 25.9998C21.333 27.1043 22.2284 27.9998 23.333 27.9998Z" fill="#0558FC"/>
</svg>
