<svg width="52" height="53" viewBox="0 0 52 53" fill="none" xmlns="http://www.w3.org/2000/svg">
<rect y="0.487793" width="52" height="52" rx="15" fill="#0558FC"/>
<path d="M20.875 34.4878H17.4766V21.8081H20.875V34.4878ZM17.2773 18.5269C17.2773 18.019 17.4453 17.6011 17.7812 17.2729C18.125 16.9448 18.5898 16.7808 19.1758 16.7808C19.7539 16.7808 20.2148 16.9448 20.5586 17.2729C20.9023 17.6011 21.0742 18.019 21.0742 18.5269C21.0742 19.0425 20.8984 19.4644 20.5469 19.7925C20.2031 20.1206 19.7461 20.2847 19.1758 20.2847C18.6055 20.2847 18.1445 20.1206 17.793 19.7925C17.4492 19.4644 17.2773 19.0425 17.2773 18.5269Z" fill="#F5F5F5"/>
<path d="M27.273 21.8081L27.3784 23.2729C28.2847 22.1401 29.4995 21.5737 31.023 21.5737C32.3667 21.5737 33.3667 21.9683 34.023 22.7573C34.6792 23.5464 35.0152 24.7261 35.0308 26.2964V34.4878H31.6441V26.3784C31.6441 25.6597 31.4878 25.1401 31.1753 24.8198C30.8628 24.4917 30.3433 24.3276 29.6167 24.3276C28.6636 24.3276 27.9487 24.7339 27.4722 25.5464V34.4878H24.0855V21.8081H27.273Z" fill="#F5F5F5"/>
</svg>
