<svg width="52" height="53" viewBox="0 0 52 53" fill="none" xmlns="http://www.w3.org/2000/svg">
<rect y="0.487793" width="52" height="52" rx="15" fill="#0558FC"/>
<path d="M25.946 20.8186C22.8406 20.8186 20.3357 23.3235 20.3357 26.429C20.3357 29.5344 22.8406 32.0393 25.946 32.0393C29.0515 32.0393 31.5564 29.5344 31.5564 26.429C31.5564 23.3235 29.0515 20.8186 25.946 20.8186ZM25.946 30.0764C23.9392 30.0764 22.2986 28.4407 22.2986 26.429C22.2986 24.4172 23.9343 22.7815 25.946 22.7815C27.9578 22.7815 29.5935 24.4172 29.5935 26.429C29.5935 28.4407 27.9529 30.0764 25.946 30.0764ZM33.0945 20.5891C33.0945 21.3167 32.5085 21.8977 31.7859 21.8977C31.0584 21.8977 30.4773 21.3118 30.4773 20.5891C30.4773 19.8665 31.0632 19.2805 31.7859 19.2805C32.5085 19.2805 33.0945 19.8665 33.0945 20.5891ZM36.8103 21.9172C36.7273 20.1643 36.3269 18.6116 35.0427 17.3323C33.7634 16.053 32.2107 15.6526 30.4578 15.5647C28.6511 15.4622 23.2361 15.4622 21.4294 15.5647C19.6814 15.6477 18.1287 16.0481 16.8445 17.3274C15.5603 18.6067 15.1648 20.1594 15.0769 21.9124C14.9744 23.719 14.9744 29.134 15.0769 30.9407C15.1599 32.6936 15.5603 34.2463 16.8445 35.5256C18.1287 36.8049 19.6765 37.2053 21.4294 37.2932C23.2361 37.3958 28.6511 37.3958 30.4578 37.2932C32.2107 37.2102 33.7634 36.8098 35.0427 35.5256C36.322 34.2463 36.7224 32.6936 36.8103 30.9407C36.9128 29.134 36.9128 23.7239 36.8103 21.9172ZM34.4763 32.8792C34.0955 33.8362 33.3582 34.5735 32.3962 34.9592C30.9558 35.5305 27.5378 35.3987 25.946 35.3987C24.3542 35.3987 20.9314 35.5256 19.4958 34.9592C18.5388 34.5784 17.8015 33.8411 17.4158 32.8792C16.8445 31.4387 16.9763 28.0208 16.9763 26.429C16.9763 24.8372 16.8494 21.4143 17.4158 19.9788C17.7966 19.0217 18.5339 18.2844 19.4958 17.8987C20.9363 17.3274 24.3542 17.4592 25.946 17.4592C27.5378 17.4592 30.9607 17.3323 32.3962 17.8987C33.3533 18.2795 34.0906 19.0168 34.4763 19.9788C35.0476 21.4192 34.9158 24.8372 34.9158 26.429C34.9158 28.0208 35.0476 31.4436 34.4763 32.8792Z" fill="#F5F5F5"/>
</svg>
