<svg width="52" height="53" viewBox="0 0 52 53" fill="none" xmlns="http://www.w3.org/2000/svg">
<rect y="0.487793" width="52" height="52" rx="15" fill="#0558FC"/>
<path d="M38.4302 21.548C38.446 21.7701 38.446 21.9922 38.446 22.2143C38.446 28.9877 33.2906 36.7923 23.868 36.7923C20.9651 36.7923 18.2684 35.9516 16 34.4922C16.4125 34.5398 16.809 34.5557 17.2373 34.5557C19.6326 34.5557 21.8375 33.7467 23.5983 32.3666C21.3458 32.319 19.4581 30.8438 18.8077 28.8133C19.125 28.8608 19.4422 28.8926 19.7754 28.8926C20.2354 28.8926 20.6955 28.8291 21.1237 28.7181C18.776 28.2422 17.0152 26.18 17.0152 23.6896V23.6261C17.6973 24.0068 18.4905 24.2448 19.3312 24.2765C17.9511 23.3564 17.0469 21.786 17.0469 20.0093C17.0469 19.0576 17.3007 18.1851 17.7449 17.4237C20.2671 20.5328 24.0583 22.5632 28.3096 22.7854C28.2303 22.4046 28.1827 22.0081 28.1827 21.6115C28.1827 18.7879 30.4669 16.4878 33.3064 16.4878C34.7816 16.4878 36.1141 17.1064 37.05 18.1058C38.208 17.8837 39.3184 17.4554 40.302 16.8685C39.9212 18.0583 39.1122 19.0576 38.0494 19.6921C39.0805 19.5811 40.0799 19.2955 40.9999 18.899C40.302 19.9142 39.4295 20.8183 38.4302 21.548Z" fill="#F5F5F5"/>
</svg>
