<svg width="52" height="53" viewBox="0 0 52 53" fill="none" xmlns="http://www.w3.org/2000/svg">
<rect y="0.487793" width="52" height="52" rx="15" fill="#0558FC"/>
<path d="M12.2 20H20.2C21.5067 20 22.4667 20.3 23.08 20.9C23.6933 21.4867 24 22.3867 24 23.6C24 24.4 23.8267 25.0533 23.48 25.56C23.1333 26.0533 22.7067 26.4 22.2 26.6C23.28 26.8933 24.0133 27.6133 24.4 28.76C24.5333 29.1733 24.6 29.6533 24.6 30.2C24.6 31.5067 24.2933 32.4667 23.68 33.08C23.0667 33.6933 22.1067 34 20.8 34H12.2V20ZM21 29.6C21 28.8 20.6 28.4 19.8 28.4H15.8V31.2H19.8C20.6 31.2 21 30.8 21 30V29.6ZM20.4 24C20.4 23.2 20 22.8 19.2 22.8H15.8V25.6H19.2C20 25.6 20.4 25.2 20.4 24.4V24ZM31.5992 30H30.0992V34H26.5992V23.4H30.0992V27.3H31.6992L32.7992 25.1C33.1992 24.2467 33.8259 23.6667 34.6792 23.36C34.9859 23.2533 35.2792 23.2 35.5592 23.2C36.0126 23.2 36.4259 23.2333 36.7992 23.3L37.2992 23.4V26.1H36.5992C36.1459 26.1 35.8126 26.3 35.5992 26.7L34.5992 28.7L37.5992 34H33.7992L31.5992 30Z" fill="white"/>
</svg>
